<?xml version="1.0" standalone="no"?>
<!DOCTYPE svg PUBLIC "-//W3C//DTD SVG 20010904//EN"
 "http://www.w3.org/TR/2001/REC-SVG-20010904/DTD/svg10.dtd">
<svg version="1.0" xmlns="http://www.w3.org/2000/svg"
 width="1920.000000pt" height="1080.000000pt" viewBox="0 0 1920.000000 1080.000000"
 preserveAspectRatio="xMidYMid meet">
<metadata>
Created by potrace 1.15, written by Peter Selinger 2001-2017
</metadata>
<g transform="translate(0.000000,1080.000000) scale(0.100000,-0.100000)"
fill="#000000" stroke="none">
<path d="M1910 7525 l0 -2245 160 0 160 0 0 1122 0 1121 38 -51 c20 -28 467
-532 991 -1121 l955 -1071 224 0 c211 0 224 1 211 17 -8 10 -475 528 -1039
1152 -564 624 -1026 1137 -1028 1141 -1 3 439 493 978 1089 539 596 980 1085
980 1087 0 2 -93 4 -208 4 l-207 0 -920 -1016 c-506 -559 -932 -1035 -947
-1057 l-28 -40 0 1056 0 1057 -160 0 -160 0 0 -2245z"/>
<path d="M5253 8228 c4 -1688 1 -1621 63 -1898 153 -685 559 -1052 1238 -1119
356 -35 728 17 993 140 196 90 398 262 512 434 173 263 270 592 300 1025 7 89
11 685 11 1553 l0 1407 -160 0 -159 0 -4 -1537 c-3 -1683 0 -1597 -62 -1843
-130 -520 -435 -809 -930 -880 -38 -5 -142 -10 -230 -10 -288 0 -474 44 -683
161 -107 61 -279 233 -346 347 -94 161 -161 361 -202 602 -17 97 -18 219 -21
1633 l-4 1527 -160 0 -160 0 4 -1542z"/>
<path d="M7691 3259 c-921 -1688 -1672 -3071 -1670 -3073 2 -1 28 -16 57 -31
45 -24 55 -27 63 -14 5 7 734 1343 1620 2968 l1611 2953 -1 131 c-1 72 -3 132
-4 133 -1 1 -755 -1379 -1676 -3067z"/>
</g>
</svg>
