<?xml version="1.0" standalone="no"?>
<!DOCTYPE svg PUBLIC "-//W3C//DTD SVG 20010904//EN"
 "http://www.w3.org/TR/2001/REC-SVG-20010904/DTD/svg10.dtd">
<svg version="1.0" xmlns="http://www.w3.org/2000/svg"
 width="1920.000000pt" height="1080.000000pt" viewBox="0 0 1920.000000 1080.000000"
 preserveAspectRatio="xMidYMid meet">
<metadata>
Created by potrace 1.15, written by Peter Selinger 2001-2017
</metadata>
<g transform="translate(0.000000,1080.000000) scale(0.100000,-0.100000)"
fill="#000000" stroke="none">
<path d="M0 5400 l0 -5400 9600 0 9600 0 0 5400 0 5400 -9600 0 -9600 0 0
-5400z m7180 145 c0 -375 1 -395 19 -404 23 -13 43 8 446 462 l300 337 69 0
70 0 -25 -27 c-28 -30 -289 -326 -407 -461 l-72 -82 21 -43 c12 -23 136 -238
275 -477 139 -239 256 -443 259 -453 6 -15 0 -17 -57 -17 -49 0 -66 4 -74 18
-6 9 -98 168 -204 352 -271 472 -289 500 -309 500 -17 0 -50 -34 -224 -234
l-87 -99 0 -268 0 -269 -60 0 -60 0 0 780 0 780 60 0 60 0 0 -395z m1353 -162
c3 -481 6 -567 20 -621 51 -189 160 -287 335 -299 204 -14 342 92 398 309 15
54 18 143 21 616 l5 552 54 0 54 0 0 -524 c0 -311 -4 -555 -10 -600 -14 -99
-52 -208 -95 -273 -101 -152 -308 -223 -520 -178 -187 40 -299 154 -358 364
-20 72 -21 102 -25 644 l-3 567 60 0 60 0 4 -557z m1931 341 c9 -8 16 -25 16
-37 0 -24 -1453 -2646 -1473 -2659 -36 -23 -87 4 -87 45 0 24 1453 2646 1473
2659 20 13 55 9 71 -8z m-162 -1451 l3 -338 380 0 380 0 3 338 2 337 60 0 60
0 0 -780 0 -781 -57 3 -58 3 -5 385 -5 385 -380 0 -380 0 -3 -387 -2 -388 -54
0 -53 0 -7 38 c-8 48 -8 1436 0 1485 l7 37 53 0 54 0 2 -337z m1567 83 c194
-344 216 -378 243 -374 16 2 61 74 197 316 l175 312 58 0 c32 0 58 -2 58 -5 0
-2 -42 -77 -94 -167 -52 -90 -148 -257 -214 -372 l-121 -209 16 -31 c9 -17
105 -181 213 -366 192 -327 230 -393 230 -405 0 -3 -26 -5 -59 -5 l-58 0 -113
198 c-257 451 -282 492 -305 492 -16 0 -29 -14 -50 -52 -53 -100 -328 -583
-347 -610 -17 -25 -26 -28 -75 -28 -41 0 -54 3 -50 13 2 7 99 174 214 372 116
198 218 375 227 393 20 39 37 4 -191 397 -97 165 -186 319 -199 343 l-25 42
64 0 63 0 143 -254z m-6343 -1733 c-3 -7 -199 -349 -437 -760 -237 -411 -439
-763 -450 -780 l-18 -33 914 0 915 0 0 -70 0 -70 -1030 0 c-566 0 -1030 3
-1030 7 0 3 231 406 512 894 l513 888 58 -32 c33 -19 55 -37 53 -44z m8280 60
c6 -10 230 -398 498 -863 268 -465 496 -860 507 -877 l18 -33 -1034 0 -1035 0
0 70 0 70 910 0 911 0 -17 33 c-9 17 -210 367 -447 777 -237 410 -432 753
-435 762 -3 12 12 25 50 47 62 36 60 36 74 14z"/>
</g>
</svg>
